# xmcd CD Database Entry
#
# Track frame offsets:
# 150
# 13762
# 24072
# 36072
# 46122
# 56610
# 68985
# 80915
# 90252
# 100335
# 113232
#
# Disc length: 1661 seconds
#
# Revision: 1
# Processed by: cddbd v1.4PL0 Copyright (c) Steve Scherf et al.
# Submitted via: tcd 2.0b
#
DISCID=80067b0b
DTITLE=Loretta Lynn's Greatest hits. Vol. 2
DYEAR=1900
DGENRE=
TTITLE0=Coal miner's daughter
TTITLE1=I wanna be free
TTITLE2=Wings upon your horns
TTITLE3=Fist city
TTITLE4=You're lookin' at country
TTITLE5=Ain't it funny
TTITLE6=One's on the way
TTITLE7=Your squaw is on the warpath
TTITLE8=What sundown does to you
TTITLE9=Hey Loretta
TTITLE10=Love is the foundation
EXTD=
EXTT0=
EXTT1=
EXTT2=
EXTT3=
EXTT4=
EXTT5=
EXTT6=
EXTT7=
EXTT8=
EXTT9=
EXTT10=
PLAYORDER=
